<?xml version="1.0" encoding="utf-8"?>
<!-- Generator: Adobe Illustrator 19.2.1, SVG Export Plug-In . SVG Version: 6.00 Build 0)  -->
<svg version="1.1" id="layer" xmlns="http://www.w3.org/2000/svg" xmlns:xlink="http://www.w3.org/1999/xlink" x="0px" y="0px"
	 viewBox="0 0 652 652" style="enable-background:new 0 0 652 652;" xml:space="preserve">
<style type="text/css">
	.st0{fill:#CF0A2C;}
	.st1{fill:#FFFFFF;}
</style>
<path class="st0" d="M212.9,575.5c-18.8,0-40-12.1-49.4-28.2L50.6,353.7c-9.4-16.1-9.4-40.3,0-56.4l113.1-193.5
	c9.4-16.1,30.6-28.2,49.4-28.2l226,0.1c18.8,0,40,12.1,49.4,28.2l112.9,193.6c9.4,16.1,9.4,40.3,0,56.4L488.3,547.4
	c-9.4,16.1-30.6,28.2-49.4,28.2L212.9,575.5z"/>
<path class="st1" d="M465.2,285.5L434.4,339l-1.5,0c-8.6-9.3-22.9-14.5-48.5-16.4c-0.1,0-0.2,0-0.3,0c-9-0.5-41.9-2.1-76.1,11.6
	c0,0,30.7-24.3,83.2-21.8c21.9-30.5,40.3-69.9,41.8-81.3c0.7-16.5-21.6-27.1-68.2-27.1c-43,0-70.4,5.2-95.6,17.3l-1.6,0l56.3-98.1
	l-70,0c-0.5,0-2.3,0.4-2.3,0.4L198,134.3l-46.2,80.2L65.9,363.9l119.8,0l9-15.7h1.5c5.9,9.4,23.1,15.6,48.7,17.9l-40.9,71.1
	c-16.9,29.4,5.8,46.7,62.4,46.7c38.4,0,72.4-6.8,93.6-18.5h1.6l-9,15.7l119.3,0l112.5-195.8L465.2,285.5z M262.7,324.8
	c-4.6,8.1-18,10.5-29.9,10.5c-30.6,0-22-14.9-15.8-25.8l31-53.9c5.3-9.3,17-19.7,42-19.7c11.4,0,22,3.2,18.3,9.7L262.7,324.8z
	 M414.7,373.3L384,426.9c-6.3,10.9-14.6,25.4-45.2,25.4c-11.9,0-22.7-2-18.1-10.1l45.6-79.3c3.7-6.5,18.3-9.3,29.2-9.3
	C420.4,353.5,420.3,363.6,414.7,373.3 M492.1,477.7c0,3-2.4,5.5-5.6,5.5c-3.1,0-5.6-2.4-5.6-5.5s2.5-5.4,5.6-5.4
	C489.6,472.3,492.1,474.7,492.1,477.7 M482.3,477.7c0,2.4,1.8,4.3,4.2,4.3c2.3,0,4.1-1.9,4.1-4.3c0-2.4-1.8-4.4-4.2-4.4
	C484.1,473.4,482.3,475.3,482.3,477.7 M485.7,480.5h-1.2v-5.4c0.5-0.1,1.2-0.2,2.1-0.2c1,0,1.5,0.2,1.8,0.4c0.3,0.2,0.6,0.6,0.6,1.2
	c0,0.7-0.5,1.1-1.1,1.3v0.1c0.5,0.2,0.8,0.6,1,1.3c0.2,0.8,0.3,1.1,0.4,1.3h-1.3c-0.2-0.2-0.3-0.7-0.4-1.3c-0.1-0.6-0.4-0.8-1.1-0.8
	h-0.6V480.5z M485.7,477.5h0.6c0.7,0,1.3-0.2,1.3-0.8c0-0.5-0.4-0.8-1.2-0.8c-0.3,0-0.6,0-0.7,0.1V477.5z M457.5,525.3
	c-6.8,0-12.4,1.2-14.9,3.5c0.9-2-1.2-3.5-6.9-3.5c-4.6,0-7.5,0.8-10.3,2.2h-0.2l0.9-1.9h-6l-7.3,4.6l2.3-4.6h-11.8l-0.9,1.9h-0.2
	c-1-1.4-2.7-2.2-7.1-2.2c-8.4,0-11,2.7-12.3,5.3l-0.2,0.3l-2.1-3.5h-7l-0.3,0.6c-0.6-1.9-4.7-2.8-11.5-2.8c-7.9,0-14.2,1.6-15.8,4.7
	c0.9-1.9-0.6-4.7-12.5-4.7c-8.6,0-13.2,1.4-15.5,2.9l3.4-6.8h-12.1l-2.9,5.7h-0.2c-1.2-1.3-3.3-1.8-7.7-1.8c-4.3,0-7.4,0.8-9.3,2.2
	c0,0-0.9,0.8-2.2,3.3c-1.3,2.5-2.3,4.5-3.5,6.7c-1,2-0.3,3-0.3,3c0.8,1.4,3.1,2.1,6.7,2.1c3.9,0,7.3-0.7,9.4-2h0.2l-0.9,1.7H311
	l1.3-2.6c0.8,1.5,3.9,2.9,12.6,2.9c9.9,0,14.4-1.8,16.3-3.6c-0.4,2.2,2.5,3.6,12,3.6c7.9,0,12-1.2,14.2-2.6l-1.1,2.3H378
	c0.3,2.4,6.3,3,12.6,3c8,0,12.9-0.8,15.6-3h12.1l5.8-11.5c0.2-0.4,0.8-1.6,3.6-1.6c2.7,0,2.2,1,1.9,1.6l-5.8,11.5h12.1l1.1-2.2
	c0.7,1.6,4.1,2.5,11.9,2.5c13.2,0,15.7-3.5,16.4-4.9c1.3-2.5-2.3-3.8-5.9-5c-3-1.2-7.3-2-6.7-3.3c0.4-0.7,1.6-1.1,3.2-1.1
	c2.5,0,2.2,0.9,2,1.3l-0.4,0.9h10.9l0.4-0.9C470.4,526.5,465.9,525.3,457.5,525.3 M307.5,531.1l-2.8,5.6c-0.6,1.1-1.3,2.7-4.4,2.7
	c-1.2,0-2.3-0.2-1.8-1.1l4.2-8.3c0.3-0.7,1.8-1,2.9-1C307.9,529,308,530,307.5,531.1 M331,530c0.3-0.5,0.7-1.3,3.4-1.3
	c2.7,0,2.2,0.8,2,1.3l-0.9,1.8h-5.3L331,530z M359.9,538.5c-0.4,0.8-1.4,1.2-3.3,1.2c-2.5,0-2.6-0.8-2.3-1.5l0.5-1h-10.2l0.4-0.9
	h-11.9l-1,2c-0.3,0.6-0.7,1.4-3.3,1.4c-2.7,0-2.3-0.8-2-1.4l1.8-3.5h17.3l2.2-4.3c-1,2.3,2.3,3.7,5.6,4.7
	C356.9,536.4,360.6,537.2,359.9,538.5 M371.2,535.9c-0.9-1.3-3.3-2.1-5.7-2.9c-3-1.1-7.2-1.9-6.5-3.3c0.4-0.7,1.5-1.1,3.2-1.1
	c2.5,0,2.1,0.9,1.9,1.3l-0.4,0.8h10.1L371.2,535.9z M396.3,541.8c-0.4,0.7-1.5,1.1-3.1,1.1c-0.9,0-1.5,0-1.9-0.2
	c-0.3-0.1-0.5-0.4-0.2-0.8h-10.8l1.4-2.8c1,1.1,3.5,1.8,6.9,1.8c3.8,0,7.3-0.7,9.2-1.9l0.1,0L396.3,541.8z M401.6,531l-2.1,4.2
	c-0.3,0.6-1.2,2.4-4.2,2.4c-1.3,0-2.2-0.3-1.8-1.2l3.1-6.2c0.5-1,1.9-1.2,3-1.2C401,529,402.4,529.5,401.6,531 M454,538.5
	c-0.4,0.8-1.4,1.2-3.3,1.2c-2.5,0-2.6-0.8-2.3-1.5l0.5-1H439l2.9-5.7c0.2,1.7,2.9,2.8,5.7,3.8C450.9,536.4,454.6,537.2,454,538.5
	 M282,530.2c1.8-3.7-1.1-5.2-12.1-5.2c-7.3,0-13.4,1.2-15.6,3.2l0.1-0.2h-9l-4.2,2.6l0.2-0.4c1.8-3.7-1.1-5.2-12.1-5.2
	c-6.8,0-12.5,1-15.1,2.8c0-1.8-2.3-2.8-7.1-2.8c-4.4,0-7.1,0.6-9.6,1.8h-0.2l2.9-5.7h-7.1c-0.1,0-0.1,0-0.2,0c-2.7,0-5.9,2-7.1,4.5
	l-0.2,0.5l-8,16h12.2l0.8-1.7h0.2c0.8,1.3,3.5,2,7.5,2c3.9,0,7-0.9,9.1-2.3c0.4,1.4,2.4,2.3,8,2.3c3.4,0,7.1-0.6,9.5-1.6h0.2
	l-0.7,1.3h10.9l-0.7,1.5c-0.4,0.8-1.5,1-2.8,1c-0.4,0-0.8,0-1.1-0.1l-1.6,3.1h6c8.6,0,10.8-2.1,12-4.6l1.3-2.5
	c0.6,1.2,2.8,1.9,7.8,1.9c3.4,0,7.1-0.6,9.5-1.6h0.1l-0.7,1.3H276L282,530.2z M197.3,537.9c-0.4,0.9-1.8,1.1-3,1.1
	c-3.1,0-2.3-1.6-1.7-2.8l2.9-5.8c0.5-1,1.6-2.1,4.2-2.1c1.2,0,2.2,0.3,1.9,1L197.3,537.9z M225.6,538.2c-0.4,0.8-1.6,1.5-3.5,1.5
	c-1.7,0-2.5-0.4-2.1-1.3l1.1-2.2c0.3-0.7,1.3-1.1,2.9-1.5l3.9-0.9L225.6,538.2z M219.6,532.4c-3,0.4-6,1-8.4,2.1l2-3.9h10.3l0.7-1.4
	c0.4-0.7,1.5-1.1,3.7-1.1c2.2,0,2.6,0.5,2.1,1.4C229.1,531.3,224.5,531.6,219.6,532.4 M266.3,538.2c-0.4,0.8-1.7,1.5-3.6,1.5
	c-1.7,0-2.5-0.4-2-1.3l1.1-2.2c0.4-0.7,1.3-1.1,2.9-1.5l3.9-0.9L266.3,538.2z M260.2,532.4c-3.4,0.5-7,1.2-9.4,2.6l2.2-4.4h11.1
	l0.7-1.4c0.3-0.7,1.5-1.1,3.7-1.1c2.3,0,2.6,0.5,2.2,1.4C269.7,531.3,265.1,531.6,260.2,532.4 M256.2,524.2l1.6-3.1h-12.2l-1.5,2.9
	l0.1,0.2H256.2z M374,525l-0.1-0.2l1.5-3.4H388l-1.6,3.6H374z M479.3,541.4c0,1.4-1.2,2.6-2.6,2.6c-1.5,0-2.7-1.2-2.7-2.6
	c0-1.4,1.2-2.6,2.7-2.6C478.1,538.8,479.3,539.9,479.3,541.4 M474.6,541.4c0,1.1,0.9,2.1,2,2.1c1.1,0,2-0.9,2-2c0-1.1-0.8-2.1-2-2.1
	C475.5,539.3,474.6,540.2,474.6,541.4 M476.2,542.7h-0.6v-2.6c0.2,0,0.6-0.1,1-0.1c0.5,0,0.7,0.1,0.9,0.2c0.2,0.1,0.3,0.3,0.3,0.5
	c0,0.3-0.2,0.5-0.5,0.6v0c0.2,0.1,0.4,0.3,0.5,0.6c0.1,0.4,0.1,0.5,0.2,0.6h-0.6c-0.1-0.1-0.1-0.3-0.2-0.6c0-0.3-0.2-0.4-0.5-0.4
	h-0.3V542.7z M476.2,541.2h0.3c0.3,0,0.6-0.1,0.6-0.4c0-0.2-0.2-0.4-0.6-0.4c-0.2,0-0.3,0-0.3,0V541.2z"/>
</svg>
